nColumns=19
nRows=136
DataType=double
version=3
OpenSimVersion=4.1
endheader
time	ground_force_calcn_r_vx	ground_force_calcn_r_vy	ground_force_calcn_r_vz	ground_force_calcn_r_px	ground_force_calcn_r_py	ground_force_calcn_r_pz	ground_force_calcn_r_mx	ground_force_calcn_r_my	ground_force_calcn_r_mz	ground_force_calcn_l_vx	ground_force_calcn_l_vy	ground_force_calcn_l_vz	ground_force_calcn_l_px	ground_force_calcn_l_py	ground_force_calcn_l_pz	ground_force_calcn_l_mx	ground_force_calcn_l_my	ground_force_calcn_l_mz
0.905	0	0	0	0	0	0	0	0	0	-76.1829	2815.96	76.4766	0.790854	0	-0.346851	0.0942505	-3.48379	-0.0946139
0.91	0	0	0	0	0	0	0	0	0	-6.39036	2772.09	63.4403	0.766675	0	-0.34682	-0.00193333	0.838661	0.0191931
0.915	0	0	0	0	0	0	0	0	0	64.1079	2709.95	62.1653	0.743232	0	-0.345934	7.98958e-05	0.00337733	7.74748e-05
0.92	0	0	0	0	0	0	0	0	0	134.778	2629.26	65.6257	0.719872	0	-0.344625	-0.484077	-9.44342	-0.235705
0.925	0	0	0	0	0	0	0	0	0	200.929	2531.88	57.9119	0.69683	0	-0.34335	-1.80043	-22.6869	-0.51892
0.93	0	0	0	0	0	0	0	0	0	260.82	2419.7	26.1824	0.675637	0	-0.342243	-2.91474	-27.0408	-0.292595
0.935	0	0	0	0	0	0	0	0	0	313.587	2291.69	-29.3767	0.657855	0	-0.340676	-1.63455	-11.9453	0.153124
0.94	0	0	0	0	0	0	0	0	0	357.284	2139.09	-95.7974	0.643215	0	-0.338029	3.47972	20.8334	-0.933006
0.945	0	0	0	0	0	0	0	0	0	391.83	1948.85	-150.335	0.62873	0	-0.334376	11.0516	54.9675	-4.2402
0.95	0	0	0	0	0	0	0	0	0	417.693	1713.9	-168.227	0.607376	0	-0.330845	17.2908	70.9487	-6.96391
0.955	0	0	0	0	0	0	0	0	0	434.752	1435.94	-135.173	0.568687	0	-0.329481	17.9763	59.374	-5.58922
0.96	0	0	0	0	0	0	0	0	0	440.629	1129.06	-59.5646	0.503136	0	-0.335841	8.50452	21.7919	-1.14965
0.965	0	0	0	0	0	0	0	0	0	428.565	820.106	27.5486	0.408244	0	-0.362833	-14.4201	-27.5944	-0.926939
0.97	0	0	0	0	0	0	0	0	0	391.612	542.904	83.2561	0.296166	0	-0.424606	-41.0913	-56.9661	-8.73594
0.975	0	0	0	0	0	0	0	0	0	328.952	328.451	80.4119	0.189178	0	-0.495247	-45.729	-45.6594	-11.1784
0.98	0	0	0	0	0	0	0	0	0	246.939	187.504	26.6942	0.19152	0	-0.457674	-18.6175	-14.1365	-2.01256
0.985	0	0	0	0	0	0	0	0	0	161.279	96.5881	-37.6173	0.401605	0	-0.213468	12.4959	7.48366	-2.91459
0.99	0	0	0	0	0	0	0	0	0	90.266	36.2529	-71.9159	0.631494	0	0.00731242	12.7405	5.11689	-10.1505
0.995	0	0	0	0	0	0	0	0	0	0	0	0	0	0	0	0	0	0
1	0	0	0	0	0	0	0	0	0	0	0	0	0	0	0	0	0	0
1.005	0	0	0	0	0	0	0	0	0	0	0	0	0	0	0	0	0	0
1.01	0	0	0	0	0	0	0	0	0	0	0	0	0	0	0	0	0	0
1.015	0	0	0	0	0	0	0	0	0	0	0	0	0	0	0	0	0	0
1.02	0	0	0	0	0	0	0	0	0	0	0	0	0	0	0	0	0	0
1.025	0	0	0	0	0	0	0	0	0	0	0	0	0	0	0	0	0	0
1.03	0	0	0	0	0	0	0	0	0	0	0	0	0	0	0	0	0	0
1.035	0	0	0	0	0	0	0	0	0	0	0	0	0	0	0	0	0	0
1.04	0	0	0	0	0	0	0	0	0	0	0	0	0	0	0	0	0	0
1.045	0	0	0	0	0	0	0	0	0	0	0	0	0	0	0	0	0	0
1.05	0	0	0	0	0	0	0	0	0	0	0	0	0	0	0	0	0	0
1.055	0	0	0	0	0	0	0	0	0	0	0	0	0	0	0	0	0	0
1.06	0	0	0	0	0	0	0	0	0	0	0	0	0	0	0	0	0	0
1.065	0	0	0	0	0	0	0	0	0	0	0	0	0	0	0	0	0	0
1.07	0	0	0	0	0	0	0	0	0	0	0	0	0	0	0	0	0	0
1.075	0	0	0	0	0	0	0	0	0	0	0	0	0	0	0	0	0	0
1.08	0	0	0	0	0	0	0	0	0	0	0	0	0	0	0	0	0	0
1.085	0	0	0	0	0	0	0	0	0	0	0	0	0	0	0	0	0	0
1.09	0	0	0	0	0	0	0	0	0	0	0	0	0	0	0	0	0	0
1.095	0	0	0	0	0	0	0	0	0	0	0	0	0	0	0	0	0	0
1.1	0	0	0	0	0	0	0	0	0	0	0	0	0	0	0	0	0	0
1.105	0	0	0	0	0	0	0	0	0	0	0	0	0	0	0	0	0	0
1.11	0	0	0	0	0	0	0	0	0	0	0	0	0	0	0	0	0	0
1.115	0	0	0	0	0	0	0	0	0	0	0	0	0	0	0	0	0	0
1.12	0	0	0	0	0	0	0	0	0	0	0	0	0	0	0	0	0	0
1.125	0	0	0	0	0	0	0	0	0	0	0	0	0	0	0	0	0	0
1.13	0	0	0	0	0	0	0	0	0	0	0	0	0	0	0	0	0	0
1.135	0	0	0	0	0	0	0	0	0	0	0	0	0	0	0	0	0	0
1.14	-60.0715	97.1595	-10.5736	1.18982	0	-0.234217	-0.607366	0.982352	-0.106906	0	0	0	0	0	0	0	0	0
1.145	-99.1033	260.744	-37.3552	1.07276	0	-0.208308	0.95078	-2.50154	0.35838	0	0	0	0	0	0	0	0	0
1.15	-137.49	498.341	-80.8618	1.03623	0	-0.221394	2.18958	-7.93625	1.28775	0	0	0	0	0	0	0	0	0
1.155	-165.906	789.388	-134.637	1.01628	0	-0.23307	2.56405	-12.1999	2.08079	0	0	0	0	0	0	0	0	0
1.16	-179.15	1114.39	-179.493	1.00539	0	-0.243243	1.61169	-10.0254	1.61478	0	0	0	0	0	0	0	0	0
1.165	-188.127	1450.81	-194.85	0.996352	0	-0.250816	-0.204387	1.57621	-0.211692	0	0	0	0	0	0	0	0	0
1.17	-215.388	1763.88	-175.112	0.985583	0	-0.25575	-1.94058	15.8921	-1.57771	0	0	0	0	0	0	0	0	0
1.175	-272.927	2021.88	-126.199	0.975814	0	-0.258471	-2.94456	21.8137	-1.36153	0	0	0	0	0	0	0	0	0
1.18	-349.666	2219.25	-57.0617	0.970815	0	-0.259302	-2.89048	18.3452	-0.471695	0	0	0	0	0	0	0	0	0
1.185	-424.837	2373.85	19.2386	0.968811	0	-0.259049	-2.46644	13.7817	0.111692	0	0	0	0	0	0	0	0	0
1.19	-482.279	2500.56	83.6871	0.963281	0	-0.25839	-2.24096	11.6191	0.388862	0	0	0	0	0	0	0	0	0
1.195	-505.115	2601.73	116.706	0.949403	0	-0.257532	-1.47965	7.62134	0.341872	0	0	0	0	0	0	0	0	0
1.2	-479.706	2678.85	112.548	0.925562	0	-0.256459	0.00574595	-0.0320874	-0.00134811	0	0	0	0	0	0	0	0	0
1.205	-407.43	2738.13	76.1897	0.893723	0	-0.25588	1.10867	-7.45078	-0.207321	0	0	0	0	0	0	0	0	0
1.21	-309.476	2783.97	21.507	0.859943	0	-0.256028	1.14556	-10.3052	-0.0796106	0	0	0	0	0	0	0	0	0
1.215	-216.096	2811.8	-33.9814	0.829154	0	-0.256476	0.590287	-7.68071	0.0928234	0	0	0	0	0	0	0	0	0
1.22	-139.25	2812.78	-74.7316	0.801696	0	-0.256656	0.127535	-2.57615	0.0684447	0	0	0	0	0	0	0	0	0
1.225	-66.3386	2789.18	-95.3413	0.776484	0	-0.256559	-0.0235212	0.988941	-0.0338045	0	0	0	0	0	0	0	0	0
1.23	15.5947	2747.58	-102.995	0.752661	0	-0.256494	0.0188897	3.32812	-0.124758	0	0	0	0	0	0	0	0	0
1.235	102.427	2685.37	-107.438	0.728911	0	-0.256757	0.2868	7.51913	-0.300829	0	0	0	0	0	0	0	0	0
1.24	183.431	2596.87	-108.892	0.705277	0	-0.257263	1.02414	14.499	-0.607973	0	0	0	0	0	0	0	0	0
1.245	252.326	2483.61	-99.3419	0.683939	0	-0.257672	2.19635	21.6184	-0.864713	0	0	0	0	0	0	0	0	0
1.25	304.341	2350.31	-71.6068	0.667003	0	-0.257865	2.82366	21.8061	-0.664365	0	0	0	0	0	0	0	0	0
1.255	337.753	2196.22	-26.2529	0.654635	0	-0.258152	1.39278	9.05646	-0.108258	0	0	0	0	0	0	0	0	0
1.26	357.128	2018.02	27.7203	0.644946	0	-0.25881	-2.21806	-12.5336	-0.172166	0	0	0	0	0	0	0	0	0
1.265	372.494	1812.06	76.2548	0.633948	0	-0.259845	-6.68192	-32.5054	-1.36788	0	0	0	0	0	0	0	0	0
1.27	390.343	1572.6	102.535	0.613664	0	-0.261578	-10.5417	-42.4701	-2.76909	0	0	0	0	0	0	0	0	0
1.275	408.968	1295.41	94.4892	0.571255	0	-0.264042	-12.2151	-38.6916	-2.82223	0	0	0	0	0	0	0	0	0
1.28	423.288	991.723	54.9575	0.492067	0	-0.265374	-9.0685	-21.2466	-1.17741	0	0	0	0	0	0	0	0	0
1.285	425.634	695.897	6.24519	0.368142	0	-0.257242	2.16013	3.53174	0.0316949	0	0	0	0	0	0	0	0	0
1.29	405.261	447.845	-25.7804	0.214296	0	-0.22453	18.7513	20.7217	-1.19286	0	0	0	0	0	0	0	0	0
1.295	351.937	274.847	-28.2288	0.086945	0	-0.181432	24.6782	19.2725	-1.97944	0	0	0	0	0	0	0	0	0
1.3	266.559	172.666	-7.03878	0.191725	0	-0.178558	14.1078	9.13839	-0.37253	0	0	0	0	0	0	0	0	0
1.305	172.122	104.871	18.0264	0.346609	0	-0.249231	-0.314609	-0.191685	-0.0329491	0	0	0	0	0	0	0	0	0
1.31	97.6057	52.297	29.3506	0.369394	0	-0.387645	-7.50983	-4.02376	-2.25825	0	0	0	0	0	0	0	0	0
1.315	50.9072	17.421	22.3273	0.42073	0	-0.50152	-4.52903	-1.54988	-1.98639	0	0	0	0	0	0	0	0	0
1.32	0	0	0	0	0	0	0	0	0	0	0	0	0	0	0	0	0	0
1.325	0	0	0	0	0	0	0	0	0	0	0	0	0	0	0	0	0	0
1.33	0	0	0	0	0	0	0	0	0	0	0	0	0	0	0	0	0	0
1.335	0	0	0	0	0	0	0	0	0	0	0	0	0	0	0	0	0	0
1.34	0	0	0	0	0	0	0	0	0	0	0	0	0	0	0	0	0	0
1.345	0	0	0	0	0	0	0	0	0	0	0	0	0	0	0	0	0	0
1.35	0	0	0	0	0	0	0	0	0	0	0	0	0	0	0	0	0	0
1.355	0	0	0	0	0	0	0	0	0	0	0	0	0	0	0	0	0	0
1.36	0	0	0	0	0	0	0	0	0	0	0	0	0	0	0	0	0	0
1.365	0	0	0	0	0	0	0	0	0	0	0	0	0	0	0	0	0	0
1.37	0	0	0	0	0	0	0	0	0	0	0	0	0	0	0	0	0	0
1.375	0	0	0	0	0	0	0	0	0	0	0	0	0	0	0	0	0	0
1.38	0	0	0	0	0	0	0	0	0	0	0	0	0	0	0	0	0	0
1.385	0	0	0	0	0	0	0	0	0	0	0	0	0	0	0	0	0	0
1.39	0	0	0	0	0	0	0	0	0	0	0	0	0	0	0	0	0	0
1.395	0	0	0	0	0	0	0	0	0	0	0	0	0	0	0	0	0	0
1.4	0	0	0	0	0	0	0	0	0	0	0	0	0	0	0	0	0	0
1.405	0	0	0	0	0	0	0	0	0	0	0	0	0	0	0	0	0	0
1.41	0	0	0	0	0	0	0	0	0	0	0	0	0	0	0	0	0	0
1.415	0	0	0	0	0	0	0	0	0	0	0	0	0	0	0	0	0	0
1.42	0	0	0	0	0	0	0	0	0	0	0	0	0	0	0	0	0	0
1.425	0	0	0	0	0	0	0	0	0	0	0	0	0	0	0	0	0	0
1.43	0	0	0	0	0	0	0	0	0	0	0	0	0	0	0	0	0	0
1.435	0	0	0	0	0	0	0	0	0	0	0	0	0	0	0	0	0	0
1.44	0	0	0	0	0	0	0	0	0	0	0	0	0	0	0	0	0	0
1.445	0	0	0	0	0	0	0	0	0	0	0	0	0	0	0	0	0	0
1.45	0	0	0	0	0	0	0	0	0	0	0	0	0	0	0	0	0	0
1.455	0	0	0	0	0	0	0	0	0	-30.0214	20.5094	-11.1264	1.12751	0	-0.100129	5.01901	-3.42878	1.86013
1.46	0	0	0	0	0	0	0	0	0	-59.1377	141.639	-5.30344	1.1466	0	-0.355819	0.925146	-2.21579	0.0829666
1.465	0	0	0	0	0	0	0	0	0	-96.0575	348.954	17.2891	1.05217	0	-0.379302	-0.785521	2.85361	0.141383
1.47	0	0	0	0	0	0	0	0	0	-136.78	638.242	63.8793	1.02821	0	-0.36209	-1.51265	7.05831	0.70644
1.475	0	0	0	0	0	0	0	0	0	-167.949	964.383	130.066	1.01332	0	-0.347466	-1.29583	7.44079	1.00354
1.48	0	0	0	0	0	0	0	0	0	-181.195	1276.21	190.572	1.00065	0	-0.334922	-0.0138144	0.097299	0.0145294
1.485	0	0	0	0	0	0	0	0	0	-195.835	1549.88	208.216	0.984591	0	-0.324977	2.24115	-17.737	-2.38284
1.49	0	0	0	0	0	0	0	0	0	-235.951	1774.65	159.232	0.965491	0	-0.318148	4.92769	-37.0626	-3.32547
1.495	0	0	0	0	0	0	0	0	0	-293.357	1943.11	51.7236	0.952366	0	-0.315095	6.19219	-41.0152	-1.09178
1.5	0	0	0	0	0	0	0	0	0	-355.067	2071.67	-73.3798	0.94812	0	-0.31558	4.28273	-24.988	0.885089
1.505	0	0	0	0	0	0	0	0	0	-413.349	2187.98	-165.43	0.94682	0	-0.317646	-0.0114217	0.0604586	-0.00457119
1.51	0	0	0	0	0	0	0	0	0	-447.506	2302.16	-194.053	0.942721	0	-0.318787	-3.52044	18.1107	-1.52657
1.515	0	0	0	0	0	0	0	0	0	-446.236	2415.18	-157.648	0.930403	0	-0.317876	-3.71785	20.1222	-1.31345
1.52	0	0	0	0	0	0	0	0	0	-414.297	2518.14	-77.2209	0.907688	0	-0.315968	-1.62097	9.85241	-0.302132
1.525	0	0	0	0	0	0	0	0	0	-357.753	2592.81	8.90527	0.878892	0	-0.314982	0.0959491	-0.695389	-0.00238838
1.53	0	0	0	0	0	0	0	0	0	-289.389	2631.71	65.7771	0.848906	0	-0.315321	0.481212	-4.37615	-0.109378
1.535	0	0	0	0	0	0	0	0	0	-223.434	2643.94	79.5908	0.820144	0	-0.31618	0.354964	-4.20035	-0.126444
1.54	0	0	0	0	0	0	0	0	0	-161.409	2641.41	62.7228	0.79418	0	-0.316569	0.257288	-4.21044	-0.0999809
1.545	0	0	0	0	0	0	0	0	0	-95.9907	2628.91	39.1393	0.770681	0	-0.316169	0.154583	-4.23357	-0.0630297
1.55	0	0	0	0	0	0	0	0	0	-25.0473	2601.76	25.5161	0.746858	0	-0.315255	0.040628	-4.22019	-0.0413885
1.555	0	0	0	0	0	0	0	0	0	50.8121	2554.77	20.9872	0.721632	0	-0.314152	-0.128584	-6.46507	-0.0531099
1.56	0	0	0	0	0	0	0	0	0	127.427	2490.63	13.8848	0.69597	0	-0.313004	-0.730922	-14.2863	-0.0796435
1.565	0	0	0	0	0	0	0	0	0	197.573	2414.43	-10.3149	0.67156	0	-0.312086	-1.89779	-23.1919	0.0990805
1.57	0	0	0	0	0	0	0	0	0	259.167	2326.04	-57.0343	0.650751	0	-0.31125	-2.10406	-18.884	0.463036
1.575	0	0	0	0	0	0	0	0	0	311.17	2220.04	-115.837	0.634779	0	-0.309638	0.982396	7.00889	-0.365708
1.58	0	0	0	0	0	0	0	0	0	353.129	2086.6	-166.274	0.622097	0	-0.306857	7.35087	43.4354	-3.46122
